<svg width="24" height="24" viewBox="0 0 24 24" fill="none" xmlns="http://www.w3.org/2000/svg">
<path d="M5 12.859a2.928 2.928 0 0 1-.853-2.072c0-.82.353-1.554.853-2.072a2.928 2.928 0 0 0 .853-2.072c0-1.624 1.324-2.929 2.956-2.929" stroke="#000000" stroke-width="1.5" stroke-linecap="round" stroke-linejoin="round"/>
<path d="M19 12.859a2.928 2.928 0 0 0 .853-2.072c0-.82-.353-1.554-.853-2.072a2.928 2.928 0 0 1-.853-2.072c0-1.624-1.324-2.929-2.956-2.929" stroke="#000000" stroke-width="1.5" stroke-linecap="round" stroke-linejoin="round"/>
<path d="M5 11.141a2.928 2.928 0 0 0-.853 2.072c0 .82.353 1.554.853 2.072a2.928 2.928 0 0 1 .853 2.072c0 1.624 1.324 2.929 2.956 2.929" stroke="#000000" stroke-width="1.5" stroke-linecap="round" stroke-linejoin="round"/>
<path d="M19 11.141a2.928 2.928 0 0 1 .853 2.072c0 .82-.353 1.554-.853 2.072a2.928 2.928 0 0 0-.853 2.072c0 1.624-1.324 2.929-2.956 2.929" stroke="#000000" stroke-width="1.5" stroke-linecap="round" stroke-linejoin="round"/>
</svg>